<?xml version="1.0" standalone="no"?>
<!DOCTYPE svg PUBLIC "-//W3C//DTD SVG 20010904//EN"
 "http://www.w3.org/TR/2001/REC-SVG-20010904/DTD/svg10.dtd">
<svg version="1.0" xmlns="http://www.w3.org/2000/svg"
 width="1536.000000pt" height="1024.000000pt" viewBox="0 0 1536.000000 1024.000000"
 preserveAspectRatio="xMidYMid meet">

<g transform="translate(0.000000,1024.000000) scale(0.100000,-0.100000)"
fill="#000000" stroke="none">
<path d="M7455 7680 c-141 -15 -269 -38 -414 -76 -722 -188 -1320 -702 -1590
-1366 -359 -883 -95 -1900 657 -2526 331 -276 730 -457 1178 -534 174 -30 575
-32 759 -5 809 121 1470 591 1814 1289 161 326 229 650 218 1031 -9 324 -69
575 -207 863 -109 229 -234 406 -420 598 -380 391 -854 629 -1415 712 -123 18
-458 26 -580 14z m-662 -1933 c61 -28 61 -27 26 -78 l-19 -27 -38 19 c-53 27
-128 34 -177 17 -34 -11 -40 -18 -43 -45 -4 -40 4 -44 136 -76 145 -36 183
-67 184 -152 1 -60 -27 -104 -87 -135 -67 -34 -192 -35 -277 -1 -85 33 -90 46
-44 104 13 17 15 17 51 -5 53 -31 196 -39 225 -13 23 21 26 57 7 73 -7 6 -56
22 -110 36 -157 41 -197 72 -197 153 0 109 79 165 225 160 61 -3 94 -9 138
-30z m-583 -223 c63 -136 116 -253 118 -260 3 -11 -10 -14 -50 -14 l-54 0 -29
60 -29 60 -132 0 -131 0 -26 -60 -26 -60 -55 0 -55 0 39 88 c41 95 163 360
186 405 13 25 19 27 72 27 l58 0 114 -246z m1208 199 l3 -43 -90 0 -91 0 0
-216 0 -215 -51 3 -51 3 -2 125 c-2 69 -4 164 -4 213 l-2 87 -85 0 -85 0 0 45
0 45 228 -2 227 -3 3 -42z m537 2 l0 -40 -145 -5 -145 -5 -3 -57 -3 -58 131 0
130 0 0 -45 0 -45 -130 0 -130 0 0 -65 0 -65 150 0 150 0 0 -45 0 -45 -202 2
-203 3 -3 258 -2 257 202 -2 203 -3 0 -40z m505 34 c31 -7 65 -23 86 -41 79
-70 65 -211 -27 -267 l-28 -17 65 -87 c35 -48 64 -89 64 -92 0 -3 -27 -5 -60
-5 l-60 0 -62 85 -63 84 -67 1 -68 0 0 -85 0 -85 -55 0 -55 0 0 260 0 260 140
0 c76 0 162 -5 190 -11z m428 -251 l2 -258 -55 0 -55 0 0 261 0 260 53 -3 52
-3 3 -257z m502 215 c65 -133 210 -449 210 -460 0 -9 -17 -13 -54 -13 l-53 0
-26 60 -26 60 -131 0 -131 0 -26 -60 -26 -60 -54 0 c-29 0 -53 4 -53 9 0 5 41
98 91 207 50 110 102 223 115 252 l23 52 58 0 59 0 24 -47z"/>
<path d="M6010 5608 c-12 -29 -33 -74 -45 -100 l-23 -48 93 0 94 0 -45 97
c-25 54 -47 99 -48 101 -2 1 -13 -21 -26 -50z"/>
<path d="M8240 5590 l0 -80 90 0 c99 0 132 10 149 47 17 37 13 62 -14 88 -22
23 -31 25 -125 25 l-100 0 0 -80z"/>
<path d="M9263 5562 c-24 -52 -41 -97 -39 -99 2 -2 42 -3 88 -1 l85 3 -39 90
c-22 50 -43 93 -46 97 -4 3 -26 -37 -49 -90z"/>
</g>
</svg>
