<?xml version="1.0" standalone="no"?>
<!DOCTYPE svg PUBLIC "-//W3C//DTD SVG 20010904//EN"
 "http://www.w3.org/TR/2001/REC-SVG-20010904/DTD/svg10.dtd">
<svg version="1.0" xmlns="http://www.w3.org/2000/svg"
 width="1024.000000pt" height="1024.000000pt" viewBox="0 0 1024.000000 1024.000000"
 preserveAspectRatio="xMidYMid meet">

<g transform="translate(0.000000,1024.000000) scale(0.100000,-0.100000)"
fill="#000000" stroke="none">
<path d="M3335 5726 c-85 -27 -143 -73 -164 -129 -16 -43 -13 -134 6 -174 32
-68 100 -102 290 -144 112 -24 160 -50 171 -92 11 -40 -2 -81 -35 -106 -33
-27 -126 -45 -190 -37 -63 7 -158 48 -194 82 l-27 26 -32 -47 c-18 -25 -30
-48 -28 -49 108 -91 195 -120 341 -114 192 8 287 83 287 225 -1 121 -64 174
-272 225 -151 37 -192 57 -207 99 -15 44 11 98 59 121 71 36 224 17 305 -37
20 -14 38 -25 39 -23 1 2 14 20 29 40 15 20 27 40 27 45 0 19 -100 73 -160 88
-78 18 -190 18 -245 1z"/>
<path d="M2421 5688 c-10 -24 -40 -90 -66 -148 -26 -58 -83 -184 -127 -280
-44 -96 -93 -204 -109 -239 -16 -35 -29 -65 -29 -67 0 -2 28 -4 63 -4 l62 0
40 95 40 95 201 0 201 0 44 -95 43 -95 62 0 63 0 -18 43 c-26 59 -113 255
-229 512 l-99 220 -62 3 -61 3 -19 -43z m150 -251 c36 -84 69 -162 73 -174 l7
-23 -156 0 c-86 0 -154 3 -152 8 2 4 37 82 78 174 41 93 76 168 79 168 3 0 35
-69 71 -153z"/>
<path d="M4010 5675 l0 -55 130 0 130 0 0 -335 0 -335 60 0 60 0 0 335 0 335
128 0 c71 0 131 2 133 4 2 2 2 27 1 55 l-4 51 -319 0 -319 0 0 -55z"/>
<path d="M4970 5340 l0 -390 295 0 295 0 0 50 0 50 -237 2 -238 3 -3 118 -3
117 221 0 220 0 0 50 0 50 -217 2 -218 3 0 113 0 113 235 2 235 2 3 53 3 52
-295 0 -296 0 0 -390z"/>
<path d="M5900 5340 l0 -390 54 0 53 0 7 38 c3 20 6 83 6 140 l0 102 108 0
107 -1 35 -49 c19 -27 66 -89 105 -139 l69 -91 69 0 68 0 -30 43 c-17 23 -67
87 -111 142 -44 55 -79 102 -79 105 0 3 28 19 62 35 91 44 121 91 125 198 3
71 0 88 -21 127 -13 25 -41 58 -63 73 -67 47 -127 57 -356 57 l-208 0 0 -390z
m467 257 c95 -51 80 -199 -24 -243 -22 -10 -77 -14 -177 -14 l-145 0 -3 141
c-2 77 -2 141 -1 142 1 1 73 0 160 -3 125 -4 165 -9 190 -23z"/>
<path d="M6900 5340 l0 -390 60 0 60 0 0 390 0 390 -60 0 -60 0 0 -390z"/>
<path d="M7645 5697 c-8 -19 -85 -189 -171 -378 -85 -189 -158 -350 -161 -356
-4 -10 11 -13 58 -13 l64 0 41 93 42 92 203 0 204 0 40 -92 40 -92 67 -1 67 0
-55 118 c-31 64 -69 146 -84 182 -16 36 -71 157 -123 270 l-94 205 -62 3 -62
3 -14 -34z m157 -279 c43 -95 76 -173 74 -175 -2 -2 -73 -2 -159 -1 l-155 3
77 172 c42 95 78 173 81 173 3 0 40 -77 82 -172z"/>
</g>
</svg>
